<svg width="142" height="131" viewBox="0 0 142 131" fill="none" xmlns="http://www.w3.org/2000/svg">
<path d="M26.7266 82.4993C27.4784 82.4993 29.0573 82.7499 29.832 82.75C30.6468 82.7531 31.4616 82.7562 32.3012 82.7595C33.133 82.7603 33.9648 82.7612 34.8218 82.7621C37.0339 82.7644 39.246 82.7704 41.4581 82.7771C43.7151 82.7833 45.9721 82.7861 48.2292 82.7892C52.6582 82.7957 57.0873 82.8061 61.5164 82.8189C61.534 83.5273 61.5517 84.2357 61.5698 84.9655C61.607 85.9052 61.6449 86.8449 61.6833 87.7845C61.6981 88.483 61.6981 88.483 61.7132 89.1956C61.8892 92.9949 63.0594 95.0428 66.0441 97.6872C68.1469 99.3635 68.1469 99.3635 70.7439 99.8194C73.738 98.8602 76.1433 97.3328 78.0676 94.9614C79.3146 92.5573 79.3627 90.443 79.4452 87.8011C79.4673 87.3215 79.4894 86.8418 79.5122 86.3476C79.5653 85.1717 79.6075 83.9953 79.6475 82.8189C84.584 82.7625 89.5205 82.7192 94.4573 82.6928C96.7497 82.6801 99.0419 82.6629 101.334 82.6353C103.97 82.6037 106.606 82.5919 109.242 82.5812C110.476 82.5624 110.476 82.5624 111.734 82.5431C112.881 82.5428 112.881 82.5428 114.051 82.5426C114.724 82.5372 115.397 82.5318 116.091 82.5262C118.31 82.8949 119.04 83.6332 120.443 85.253C121.288 86.5748 121.288 86.5748 122.026 88.0127C122.306 88.5493 122.585 89.0859 122.873 89.6387C123.166 90.2121 123.459 90.7855 123.761 91.3762C124.396 92.5937 125.032 93.8108 125.668 95.0273C125.987 95.6368 126.305 96.2463 126.633 96.8743C127.98 99.4245 129.385 101.944 130.803 104.459C131.19 105.15 131.19 105.15 131.585 105.854C133.047 108.458 134.53 111.05 136.029 113.635C136.524 114.498 136.524 114.498 137.028 115.378C137.666 116.49 138.31 117.6 138.961 118.705C141.855 123.782 141.855 123.782 141.164 126.632C139.879 128.214 138.832 129.458 136.714 129.965C135.263 130.087 133.844 130.113 132.387 130.1C131.59 130.107 131.59 130.107 130.778 130.114C129.658 130.118 128.538 130.115 127.418 130.105C125.713 130.093 124.012 130.117 122.307 130.144C121.215 130.144 120.123 130.143 119.031 130.138C118.274 130.152 118.274 130.152 117.502 130.167C114.067 130.098 112.2 129.279 109.728 127.03C108.448 125.661 107.534 124.278 106.667 122.648C106.168 121.727 106.168 121.727 105.658 120.787C105.163 119.84 105.163 119.84 104.659 118.874C104.142 117.912 104.142 117.912 103.614 116.932C102.739 115.301 101.874 113.666 101.016 112.028C100.803 111.626 100.589 111.225 100.369 110.811C80.7095 110.61 61.0502 110.409 40.7951 110.202C40.3677 111.407 39.9403 112.612 39.5 113.853C38.3534 116.157 37.0601 118.384 35.7766 120.623C35.4444 121.225 35.1122 121.826 34.7699 122.446C34.4377 123.026 34.1055 123.606 33.7632 124.203C33.4662 124.728 33.1693 125.253 32.8633 125.793C31.1979 127.919 29.4057 129.403 26.5675 129.897C25.096 129.996 23.6483 130.012 22.1732 129.998C21.6387 130 21.1042 130.003 20.5534 130.005C19.4291 130.007 18.3047 130.002 17.1804 129.992C15.4605 129.979 13.7423 129.992 12.0225 130.008C10.9272 130.006 9.83199 130.003 8.73674 129.998C7.96772 130.005 7.96772 130.005 7.18316 130.013C4.9569 129.977 3.50772 129.845 1.6394 128.666C0.357295 126.824 0.00334044 125.808 0 123.59C0.644156 121.771 1.57575 120.132 2.5421 118.448C2.81512 117.954 3.08814 117.46 3.36942 116.951C4.24666 115.368 5.1381 113.793 6.03023 112.218C6.60326 111.19 7.17535 110.161 7.74646 109.131C8.89232 107.07 10.0453 105.013 11.2045 102.959C12.3834 100.869 13.553 98.7757 14.7148 96.6779C15.001 96.1624 15.2872 95.6469 15.5821 95.1157C16.12 94.1465 16.6565 93.1765 17.1912 92.2057C22.4585 82.7395 21.6313 82.4889 26.7266 82.4993Z" fill="#0C3C2F"/>
<path d="M72.5223 0.0602853C72.5223 0.461908 73.2266 0.593043 73.2266 1.00684C73.8157 1.22966 73.8838 1.66407 74.2266 2.00684C75.2266 3.00684 75.7266 3.50684 76.792 5.02827C77.0943 5.5532 77.3966 6.07812 77.708 6.61895C78.1861 7.47649 78.1861 7.47649 78.6739 8.35136C79.1809 9.24244 79.1809 9.24244 79.698 10.1515C82.502 15.1146 85.1816 20.1358 87.8364 25.1705C89.9797 29.2351 92.1841 33.2621 94.4479 37.2684C97.4679 42.6245 100.409 48.0188 103.355 53.4106C106.481 59.1283 109.621 64.8372 112.87 70.494C114.612 73.5605 114.612 73.5605 114.612 74.9081C104.142 74.9081 93.671 74.9081 82.8829 74.9081C81.1734 71.6952 79.4639 68.4822 77.7026 65.1718C76.5596 63.1498 75.4058 61.1366 74.2246 59.1342C72.9537 56.939 71.9934 54.7857 71.2272 52.3929C69.0832 54.7198 67.6127 57.1642 66.2088 59.9234C65.7604 60.7851 65.311 61.6464 64.8606 62.5072C64.6313 62.9456 64.4021 63.384 64.1659 63.8357C63.0107 66.0121 61.8017 68.1607 60.5832 70.3062C60.3618 70.6983 60.1404 71.0905 59.9123 71.4944C58.3585 74.2225 58.3585 74.2225 57.6288 74.9081C56.6548 74.9648 55.678 74.9796 54.7021 74.9772C53.7687 74.9772 53.7687 74.9772 52.8165 74.9771C52.14 74.974 51.4635 74.9708 50.7664 74.9676C50.0774 74.9667 49.3885 74.9659 48.6786 74.965C46.4682 74.9616 44.2578 74.9539 42.0474 74.9462C40.5529 74.9431 39.0584 74.9404 37.5639 74.9379C33.8916 74.9311 30.2192 74.9209 26.5469 74.9081C29.8064 68.747 33.1206 62.6192 36.5332 56.5313C38.6208 52.7923 40.6471 49.0278 42.6502 45.2484C45.1045 40.6239 47.62 36.0294 50.1416 31.4371C50.3815 30.9998 50.6213 30.5625 50.8684 30.1119C53.7705 24.8203 56.6827 19.5347 59.6755 14.2877C60.7458 12.4054 61.7839 10.5131 62.7763 8.59382C62.9803 8.20058 63.1843 7.80734 63.3944 7.40218C63.9374 6.34786 64.4727 5.29006 65.0073 4.23197C67.0076 0.888543 68.3773 -0.293827 72.5223 0.0602853Z" fill="#6BCB95"/>
<path d="M30.1511 110.751C30.7312 110.753 31.3113 110.755 31.909 110.757C32.8193 110.765 32.8193 110.765 33.748 110.773C34.3598 110.775 34.9717 110.778 35.602 110.781C37.1155 110.788 38.629 110.798 40.1424 110.811C39.5295 114.467 37.6716 117.365 35.812 120.585C35.4768 121.189 35.1417 121.794 34.7964 122.417C34.4613 122.999 34.1261 123.581 33.7808 124.182C33.4798 124.71 33.1787 125.239 32.8685 125.784C31.1952 127.915 29.4124 129.418 26.5536 129.885C25.0692 129.966 23.609 129.965 22.1226 129.934C21.585 129.932 21.0474 129.93 20.4935 129.928C19.3636 129.922 18.2338 129.909 17.1041 129.892C15.3705 129.865 13.6374 129.854 11.9036 129.847C10.8041 129.839 9.70461 129.83 8.60515 129.82C8.08578 129.815 7.56642 129.811 7.03131 129.806C3.38595 129.747 3.38595 129.747 1.9375 129.066C1.9375 128.665 1.9375 128.263 1.9375 127.849C3.1997 127.013 3.1997 127.013 4.97285 126.024C8.98507 123.692 12.672 121.053 16.3741 118.319C18.2858 116.909 20.2091 115.514 22.1327 114.12C22.6697 113.727 22.6697 113.727 23.2175 113.327C25.7169 111.512 27.0012 110.733 30.1511 110.751Z" fill="#03261C"/>
<path d="M72.5196 79.1683C73.0405 79.3691 73.5613 79.5699 74.098 79.7768C75.9383 80.4517 77.6908 80.7379 79.6425 80.9938C79.6425 81.3955 79.6425 81.7971 79.6425 82.2109C91.8228 82.2109 104.003 82.2109 116.552 82.2109C116.552 82.4117 116.552 82.6125 116.552 82.8194C104.372 82.8194 92.1919 82.8194 79.6425 82.8194C79.6425 86.2332 79.6425 89.647 79.6425 93.1642C77.6781 96.5487 75.6177 98.7439 71.8721 100.466C68.9839 100.606 67.2947 98.9822 65.2322 97.2812C59.7436 92.0656 61.5114 92.1813 61.5114 82.8194C49.3312 82.8194 37.1509 82.8194 24.6016 82.8194C24.6016 82.6186 24.6016 82.4178 24.6016 82.2109C36.7818 82.2109 48.9621 82.2109 61.5114 82.2109C61.5114 81.8092 61.5114 81.4076 61.5114 80.9938C62.19 80.8067 62.19 80.8067 62.8824 80.6159C63.4717 80.4519 64.061 80.288 64.6682 80.1191C65.5471 79.8755 65.5471 79.8755 66.4438 79.627C70.0133 78.5658 70.0133 78.5658 72.5196 79.1683Z" fill="#7FDDAB"/>
<path d="M55.0399 22.5762C55.4672 22.5762 55.8946 22.5762 56.3349 22.5762C59.5535 28.5493 62.6781 34.5591 65.7227 40.6123C65.9803 41.124 66.2379 41.6357 66.5034 42.1629C66.75 42.6579 66.9967 43.1528 67.2508 43.6628C67.7342 44.5961 68.2436 45.5181 68.7811 46.4249C69.9476 48.4066 70.5897 49.5651 70.5378 51.8683C69.8797 53.765 69.0678 55.4066 68.0311 57.1477C67.5216 58.0196 67.5216 58.0196 67.0017 58.9091C66.0481 60.3044 66.0481 60.3044 64.753 60.9129C64.6061 60.1849 64.4591 59.457 64.3078 58.707C62.257 50.1475 58.2098 41.8017 54.3027 33.8559C53.9464 33.1296 53.9464 33.1296 53.5829 32.3885C53.365 31.9532 53.1472 31.5178 52.9227 31.0693C52.1991 29.2475 52.4519 28.0466 53.0972 26.2273C53.7056 24.9925 54.3444 23.7696 55.0399 22.5762Z" fill="#082F23"/>
<path d="M70.2031 84.7852C71.9029 85.0134 71.2129 85.0134 72.7508 85.3937C72.9983 86.4015 72.7671 86.0195 72.9524 87.0391C70.7031 87.7852 72.1725 93.0975 71.9524 93.3044C72.1451 91.8816 71.7143 94.7212 71.9524 93.3044C71.0976 93.3044 70.8338 93.3044 69.9531 93.3044C69.8596 92.6643 70.0494 92.6985 69.9531 92.0391C69.9278 92.9137 70.7031 87.7852 68.2227 87.2536C68.156 86.8143 68.2868 86.4548 68.218 86.0022C68.6454 85.6006 69.2031 84.7852 70.2031 84.7852Z" fill="#236841"/>
<path d="M63.4574 86.4707C63.8847 86.4707 64.3121 86.4707 64.7524 86.4707C64.7524 88.278 64.7524 90.0853 64.7524 91.9474C63.8977 91.9474 63.0429 91.9474 62.1623 91.9474C62.0813 89.8936 62.0813 89.8936 62.1623 87.6877C62.5896 87.2861 63.017 86.8845 63.4574 86.4707Z" fill="#8BF1B9"/>
<path d="M64.1016 40.8311C64.7426 40.8311 65.3837 40.8311 66.0442 40.8311C65.8305 42.4375 65.6168 44.044 65.3966 45.6992C64.9693 45.6992 64.5419 45.6992 64.1016 45.6992C64.1016 44.0927 64.1016 42.4862 64.1016 40.8311Z" fill="#07271B"/>
<path d="M51.567 27.96C52.5457 25.976 53.5891 24.3575 54.5032 23C57.8638 30.0107 58.9512 37.5603 62.1302 44.665C62.3992 45.2655 62.6682 45.8661 62.9453 46.4848C63.2029 47.0658 63.4604 47.6467 63.7258 48.2453C64.2305 49.3408 64.7624 50.4228 65.3237 51.4872C66.4888 53.7124 67.1974 55.1617 67.2266 57.7365C66.2532 60.7747 64.8998 63.4968 63.4419 66.3044C63.1408 66.8953 62.8397 67.4863 62.5295 68.0951C61.9124 69.3061 61.293 70.5157 60.6714 71.7241C59.8176 73.3896 58.9753 75.0608 58.1385 76.7358C57.8915 77.2298 57.6445 77.7238 57.39 78.2328C56.9253 79.1621 56.4608 80.0915 55.9964 81.021C54.4335 84.1231 54.4335 84.1231 53.6804 84.9186C52.6634 84.9851 51.6434 85.0025 50.6245 84.9997C49.6499 84.9996 49.6499 84.9996 48.6557 84.9996C47.9493 84.9959 47.2429 84.9922 46.5151 84.9884C45.7957 84.9874 45.0763 84.9864 44.3351 84.9853C42.0271 84.9813 39.7192 84.9723 37.4112 84.9633C35.8508 84.9597 34.2903 84.9564 32.7299 84.9535C28.8954 84.9456 25.061 84.9336 21.2266 84.9186C24.3236 78.3383 27.7266 72.5 31.2266 66C33.6679 61.0794 39.4487 50.7959 41.7798 45.816C46.5151 37 50.5883 29.944 51.567 27.96Z" fill="#0D3F32"/>
</svg>
