<svg width="147" height="186" viewBox="0 0 147 186" fill="none" xmlns="http://www.w3.org/2000/svg">
<path d="M20.2584 138.507C20.8519 138.514 21.4454 138.521 22.0569 138.528C22.652 138.534 23.2472 138.539 23.8604 138.545C24.3203 138.552 24.7802 138.559 25.2541 138.566C25.5371 139.188 25.82 139.81 26.1116 140.451C26.768 141.891 27.4308 143.328 28.0997 144.763C30.0225 148.91 31.8011 153.08 33.4642 157.324C34.6491 160.331 35.92 163.296 37.2336 166.254C38.7743 169.733 40.2662 173.226 41.6855 176.751C41.8478 177.15 42.0102 177.549 42.1774 177.96C43.0005 180.026 43.6523 182.027 44.0328 184.205C41.8959 184.205 39.759 184.205 37.5574 184.205C36.8148 182.418 36.0729 180.63 35.3315 178.843C35.1207 178.336 34.9099 177.828 34.6928 177.306C34.4903 176.818 34.2879 176.329 34.0794 175.826C33.8929 175.377 33.7064 174.928 33.5142 174.465C33.109 173.461 32.7383 172.445 32.377 171.426C25.3253 171.225 18.2736 171.025 11.0082 170.818C10.7945 171.822 10.5808 172.826 10.3607 173.86C9.97649 175.083 9.57065 176.3 9.14652 177.511C8.9345 178.126 8.72248 178.741 8.50403 179.375C7.7635 181.18 7.09005 182.673 5.82787 184.205C4.36331 184.502 4.36331 184.502 2.79252 184.395C2.26915 184.368 1.74578 184.34 1.20655 184.312C0.808389 184.277 0.410227 184.242 0 184.205C0.364552 181.735 0.942266 179.633 1.99068 177.345C2.26098 176.748 2.53127 176.15 2.80975 175.534C3.09789 174.907 3.38602 174.279 3.68289 173.632C5.62963 169.324 7.55317 165.02 9.26793 160.625C10.5565 157.323 11.9429 154.076 13.4061 150.839C14.6319 148.025 15.7486 145.174 16.8576 142.318C18.3197 138.585 18.3197 138.585 20.2584 138.507Z" fill="#333842"/>
<path d="M127.681 149.329C128.483 149.303 128.483 149.303 129.302 149.276C133.15 149.239 136.003 149.918 139.216 151.954C141.907 154.547 142.538 156.625 142.527 160.164C142.527 160.7 142.527 161.236 142.527 161.788C142.523 162.361 142.52 162.934 142.517 163.525C142.516 164.116 142.515 164.707 142.514 165.315C142.51 167.2 142.502 169.085 142.494 170.97C142.491 172.249 142.488 173.527 142.485 174.806C142.478 177.939 142.467 181.072 142.453 184.205C140.958 184.205 139.462 184.205 137.921 184.205C137.493 182.799 137.066 181.394 136.626 179.945C135.764 180.642 135.764 180.642 134.885 181.353C131.494 184.095 128.873 185.123 124.363 185.08C123.692 185.098 123.692 185.098 123.008 185.117C119.681 185.114 117.794 184.366 115.257 182.38C112.982 179.71 112.237 176.69 112.416 173.316C112.96 170.534 114.693 168.873 116.835 167.014C121.384 164.095 126.392 164.026 131.729 164.086C132.439 164.09 132.439 164.09 133.164 164.094C134.318 164.101 135.472 164.112 136.626 164.124C136.478 162.943 136.312 161.765 136.14 160.587C136.05 159.93 135.96 159.274 135.867 158.597C135.486 156.787 135.486 156.787 134.147 155.712C130.496 153.854 125.992 153.813 122.026 154.796C121.038 155.118 120.057 155.455 119.084 155.814C117.847 156.213 117.847 156.213 115.904 156.213C115.691 154.808 115.477 153.402 115.257 151.954C119.618 150.175 122.922 149.381 127.681 149.329Z" fill="#393E48"/>
<path d="M106.195 151.954C106.195 154.388 106.195 154.388 104.9 156.213C104.334 156.016 104.334 156.016 103.757 155.814C98.6939 154.198 93.395 153.192 88.388 155.377C85.6777 157.796 84.052 159.801 83.8577 163.364C83.8568 164.429 83.8698 165.494 83.8956 166.558C83.8888 167.358 83.8888 167.358 83.8817 168.175C83.9243 172.261 84.8546 174.814 87.619 178.044C90.3281 180.016 93.5754 179.707 96.8515 179.606C99.8363 179.245 101.706 178.376 104.253 176.903C104.68 176.903 105.107 176.903 105.548 176.903C106.641 178.31 106.641 178.31 107.49 179.946C106.843 181.771 106.843 181.771 105.5 182.594C99.7508 185.226 99.7508 185.226 96.4822 185.422C96.0448 185.46 95.6074 185.498 95.1568 185.536C90.1739 185.795 86.3062 184.176 82.3577 181.391C79.75 179.162 78.7188 176.36 77.7035 173.252C77.5783 172.88 77.4531 172.508 77.3241 172.125C76.3443 167.348 76.1573 161.061 78.9986 156.822C83.8488 150.767 83.8488 150.767 87.5684 149.722C94.1574 148.978 100.34 148.752 106.195 151.954Z" fill="#323741"/>
<path d="M69.1186 149.444C69.7563 149.455 70.394 149.466 71.0511 149.477C71.7773 149.498 71.7773 149.498 72.5182 149.52C72.5182 151.327 72.5182 153.135 72.5182 154.997C71.6856 154.999 71.6856 154.999 70.8361 155.001C66.4677 155.14 63.5392 155.318 60.3894 158.301C58.1042 160.957 58.0537 163.034 58.0042 166.318C57.9916 166.829 57.9791 167.34 57.9662 167.866C57.9275 169.496 57.8974 171.127 57.8676 172.758C57.8428 173.863 57.8176 174.969 57.7917 176.075C57.7295 178.785 57.6751 181.495 57.6247 184.206C55.7015 184.206 53.7784 184.206 51.7969 184.206C51.7969 172.96 51.7969 161.715 51.7969 150.128C53.2927 150.128 54.7885 150.128 56.3297 150.128C56.9707 151.936 57.6118 153.743 58.2723 155.605C58.5694 155.268 58.8666 154.931 59.1728 154.583C59.5701 154.142 59.9674 153.701 60.3768 153.247C60.7674 152.809 61.1581 152.372 61.5606 151.921C63.9433 149.654 65.7749 149.369 69.1186 149.444Z" fill="#353A44"/>
<path d="M32.3271 82.75C33.079 82.75 33.8308 82.7501 34.6054 82.7501C35.4202 82.7533 36.2351 82.7564 37.0746 82.7597C37.9064 82.7605 38.7382 82.7614 39.5952 82.7623C41.8073 82.7646 44.0194 82.7706 46.2316 82.7773C48.4886 82.7835 50.7456 82.7863 53.0026 82.7894C57.4317 82.7959 61.8608 82.8063 66.2898 82.8191C66.3075 83.5275 66.3251 84.2358 66.3433 84.9657C66.3805 85.9054 66.4184 86.845 66.4568 87.7847C66.4716 88.4832 66.4716 88.4832 66.4867 89.1958C66.6627 92.9951 67.8328 95.0429 70.8176 97.6874C72.9203 99.3637 72.9203 99.3637 75.5173 99.8196C78.5114 98.8604 80.9168 97.333 82.841 94.9615C84.088 92.5575 84.1361 90.4431 84.2186 87.8013C84.2407 87.3217 84.2629 86.842 84.2857 86.3478C84.3387 85.1718 84.381 83.9955 84.421 82.8191C89.3575 82.7627 94.2939 82.7194 99.2307 82.693C101.523 82.6803 103.815 82.663 106.108 82.6355C108.744 82.6039 111.379 82.5921 114.016 82.5814C115.249 82.5625 115.249 82.5625 116.507 82.5433C117.655 82.543 117.655 82.543 118.825 82.5427C119.498 82.5373 120.171 82.5319 120.864 82.5264C123.084 82.8951 123.814 83.6333 125.216 85.2532C126.061 86.5749 126.061 86.5749 126.8 88.0129C127.079 88.5495 127.359 89.0861 127.647 89.6389C127.94 90.2123 128.233 90.7856 128.535 91.3764C129.169 92.5939 129.805 93.8109 130.442 95.0275C130.76 95.637 131.078 96.2465 131.406 96.8744C132.753 99.4247 134.158 101.944 135.577 104.46C135.964 105.15 135.964 105.15 136.358 105.854C137.82 108.458 139.304 111.05 140.803 113.635C141.297 114.498 141.297 114.498 141.802 115.378C142.439 116.491 143.083 117.6 143.734 118.705C146.629 123.782 146.629 123.782 145.937 126.632C144.653 128.214 143.606 129.458 141.488 129.966C140.036 130.088 138.617 130.113 137.16 130.101C136.364 130.107 136.364 130.107 135.552 130.114C134.431 130.118 133.311 130.115 132.191 130.105C130.486 130.093 128.785 130.117 127.08 130.145C125.988 130.145 124.896 130.143 123.805 130.139C123.048 130.153 123.048 130.153 122.275 130.167C118.84 130.099 116.973 129.279 114.502 127.03C113.221 125.661 112.307 124.278 111.441 122.649C110.941 121.727 110.941 121.727 110.431 120.787C109.937 119.84 109.937 119.84 109.432 118.874C108.915 117.913 108.915 117.913 108.388 116.932C107.512 115.301 106.648 113.666 105.79 112.028C105.576 111.626 105.362 111.225 105.142 110.811C85.4829 110.61 65.8236 110.409 45.5685 110.202C45.1411 111.407 44.7138 112.612 44.2734 113.854C43.1269 116.157 41.8335 118.385 40.5501 120.623C40.2179 121.225 39.8856 121.827 39.5434 122.447C39.2111 123.026 38.8789 123.606 38.5366 124.203C38.2397 124.728 37.9427 125.253 37.6368 125.794C35.9713 127.92 34.1791 129.403 31.341 129.897C29.8695 129.996 28.4218 130.013 26.9467 129.998C26.4121 130.001 25.8776 130.003 25.3269 130.005C24.2025 130.007 23.0781 130.003 21.9538 129.992C20.2339 129.979 18.5158 129.992 16.7959 130.008C15.7007 130.006 14.6054 130.003 13.5102 129.998C12.7412 130.006 12.7412 130.006 11.9566 130.013C9.73034 129.978 8.28116 129.846 6.41284 128.666C5.13073 126.824 4.77678 125.808 4.77344 123.59C5.41759 121.772 6.34919 120.132 7.31554 118.448C7.58856 117.954 7.86157 117.46 8.14286 116.951C9.02009 115.368 9.91153 113.793 10.8037 112.218C11.3767 111.19 11.9488 110.161 12.5199 109.132C13.6658 107.071 14.8187 105.013 15.978 102.959C17.1569 100.869 18.3265 98.7758 19.4882 96.678C19.7745 96.1625 20.0607 95.647 20.3556 95.1159C20.8934 94.1466 21.4299 93.1767 21.9646 92.2059C27.2319 82.7396 27.2319 82.7396 32.3271 82.75Z" fill="#0C3C2F"/>
<path d="M77.2957 0.0602853C77.2957 0.461908 78 0.593043 78 1.00684C78.5891 1.22966 78.6572 1.66407 79 2.00684C80 3.00684 80.5 3.50684 81.5654 5.02827C81.8677 5.5532 82.17 6.07812 82.4814 6.61895C82.9596 7.47649 82.9596 7.47649 83.4474 8.35136C83.9543 9.24244 83.9543 9.24244 84.4715 10.1515C87.2754 15.1146 89.9551 20.1358 92.6098 25.1705C94.7532 29.2351 96.9575 33.2621 99.2214 37.2684C102.241 42.6245 105.182 48.0188 108.129 53.4106C111.254 59.1283 114.394 64.8372 117.643 70.494C119.386 73.5605 119.386 73.5605 119.386 74.9081C108.915 74.9081 98.4444 74.9081 87.6564 74.9081C85.9469 71.6952 84.2374 68.4822 82.4761 65.1718C81.3331 63.1498 80.1792 61.1366 78.998 59.1342C77.7272 56.939 76.7668 54.7857 76.0006 52.3929C73.8566 54.7198 72.3861 57.1642 70.9822 59.9234C70.5339 60.7851 70.0845 61.6464 69.634 62.5072C69.4048 62.9456 69.1755 63.384 68.9393 63.8357C67.7842 66.0121 66.5752 68.1607 65.3567 70.3062C65.1353 70.6983 64.9139 71.0905 64.6857 71.4944C63.1319 74.2225 63.1319 74.2225 62.4023 74.9081C61.4283 74.9648 60.4514 74.9796 59.4755 74.9772C58.5422 74.9772 58.5422 74.9772 57.59 74.9771C56.9134 74.974 56.2369 74.9708 55.5399 74.9676C54.8509 74.9667 54.1619 74.9659 53.452 74.965C51.2416 74.9616 49.0312 74.9539 46.8208 74.9462C45.3263 74.9431 43.8319 74.9404 42.3374 74.9379C38.665 74.9311 34.9927 74.9209 31.3203 74.9081C34.5798 68.747 37.894 62.6192 41.3066 56.5313C43.3942 52.7923 45.4205 49.0278 47.4236 45.2484C49.8779 40.6239 52.3935 36.0294 54.9151 31.4371C55.1549 30.9998 55.3947 30.5625 55.6418 30.1119C58.5439 24.8203 61.4561 19.5347 64.4489 14.2877C65.5192 12.4054 66.5573 10.5131 67.5497 8.59382C67.7537 8.20058 67.9577 7.80734 68.1679 7.40218C68.7108 6.34786 69.2461 5.29006 69.7807 4.23197C71.7811 0.888543 73.1507 -0.293827 77.2957 0.0602853Z" fill="#6BCB95"/>
<path d="M59.8121 22.5762C60.2395 22.5762 60.6669 22.5762 61.1072 22.5762C64.3257 28.5493 67.4503 34.5591 70.495 40.6123C70.7526 41.124 71.0102 41.6357 71.2756 42.1629C71.5223 42.6579 71.7689 43.1528 72.0231 43.6628C72.5064 44.5961 73.0159 45.5181 73.5534 46.4249C74.6693 48.3208 75.348 49.5556 75.3759 51.7494C74.4436 54.338 73.1475 56.6572 71.7512 59.0493C71.4628 59.5528 71.1745 60.0563 70.8774 60.575C70.2863 61.6068 69.6931 62.6374 69.0978 63.667C68.28 65.086 67.4734 66.5098 66.672 67.937C66.4354 68.3579 66.1988 68.7788 65.9551 69.2124C65.51 70.0042 65.0651 70.796 64.6205 71.588C63.1236 74.231 63.1236 74.231 62.4023 74.9088C61.4283 74.9655 60.4514 74.9803 59.4755 74.9779C58.5422 74.9778 58.5422 74.9778 57.59 74.9778C56.9134 74.9746 56.2369 74.9715 55.5399 74.9683C54.8509 74.9674 54.1619 74.9665 53.452 74.9656C51.2416 74.9622 49.0312 74.9546 46.8208 74.9469C45.3263 74.9438 43.8319 74.941 42.3374 74.9385C38.665 74.9318 34.9927 74.9216 31.3203 74.9088C34.2864 69.3023 37.282 63.7151 40.3859 58.1745C42.724 53.9821 45.0322 49.7812 47.2647 45.5383C51.3391 37.8336 55.6031 30.2164 59.8121 22.5762Z" fill="#0D3F32"/>
<path d="M34.9245 110.751C35.5046 110.753 36.0848 110.755 36.6825 110.757C37.5927 110.765 37.5927 110.765 38.5214 110.773C39.1332 110.775 39.7451 110.778 40.3755 110.781C41.889 110.788 43.4024 110.798 44.9159 110.811C44.3029 114.467 42.4451 117.365 40.5854 120.585C40.2503 121.189 39.9151 121.794 39.5698 122.417C39.2347 122.999 38.8996 123.581 38.5543 124.182C38.2532 124.71 37.9521 125.239 37.6419 125.784C35.9687 127.915 34.1858 129.418 31.327 129.885C29.8427 129.966 28.3825 129.965 26.896 129.934C26.3584 129.932 25.8208 129.93 25.2669 129.928C24.1371 129.922 23.0073 129.909 21.8776 129.892C20.1439 129.865 18.4109 129.854 16.677 129.847C15.5775 129.839 14.478 129.83 13.3786 129.82C12.8592 129.815 12.3399 129.811 11.8048 129.806C8.15938 129.747 8.15938 129.747 6.71094 129.066C6.71094 128.665 6.71094 128.263 6.71094 127.849C7.97314 127.013 7.97314 127.013 9.74629 126.024C13.7585 123.692 17.4455 121.053 21.1475 118.319C23.0592 116.909 24.9825 115.514 26.9061 114.12C27.4431 113.727 27.4431 113.727 27.9909 113.327C30.4904 111.512 31.7747 110.733 34.9245 110.751Z" fill="#03261C"/>
<path d="M77.293 79.1683C77.8139 79.3691 78.3348 79.5699 78.8714 79.7768C80.7117 80.4517 82.4643 80.7379 84.416 80.9938C84.416 81.3955 84.416 81.7971 84.416 82.2109C96.5962 82.2109 108.776 82.2109 121.326 82.2109C121.326 82.4117 121.326 82.6125 121.326 82.8194C109.146 82.8194 96.9653 82.8194 84.416 82.8194C84.416 86.2332 84.416 89.647 84.416 93.1642C82.4515 96.5487 80.3912 98.7439 76.6455 100.466C73.7573 100.606 72.0681 98.9822 70.0057 97.2812C64.517 92.0656 66.2848 92.1813 66.2848 82.8194C54.1046 82.8194 41.9243 82.8194 29.375 82.8194C29.375 82.6186 29.375 82.4178 29.375 82.2109C41.5552 82.2109 53.7355 82.2109 66.2848 82.2109C66.2848 81.8092 66.2848 81.4076 66.2848 80.9938C66.9635 80.8067 66.9635 80.8067 67.6558 80.6159C68.2451 80.4519 68.8344 80.288 69.4416 80.1191C70.3206 79.8755 70.3206 79.8755 71.2173 79.627C74.7867 78.5658 74.7867 78.5658 77.293 79.1683Z" fill="#7FDDAB"/>
<path d="M59.8133 22.5762C60.2407 22.5762 60.668 22.5762 61.1084 22.5762C64.3269 28.5493 67.4515 34.5591 70.4961 40.6123C70.7538 41.124 71.0114 41.6357 71.2768 42.1629C71.5235 42.6579 71.7701 43.1528 72.0242 43.6628C72.5076 44.5961 73.017 45.5181 73.5546 46.4249C74.721 48.4066 75.3632 49.5651 75.3113 51.8683C74.6532 53.765 73.8412 55.4066 72.8046 57.1477C72.295 58.0196 72.295 58.0196 71.7751 58.9091C70.8215 60.3044 70.8215 60.3044 69.5264 60.9129C69.3795 60.1849 69.2326 59.457 69.0812 58.707C67.0304 50.1475 62.9833 41.8017 59.0761 33.8559C58.7198 33.1296 58.7198 33.1296 58.3563 32.3885C58.1385 31.9532 57.9206 31.5178 57.6961 31.0693C56.9725 29.2475 57.2253 28.0466 57.8707 26.2273C58.479 24.9925 59.1178 23.7696 59.8133 22.5762Z" fill="#082F23"/>
<path d="M74.0599 85.2529C75.7597 85.4811 75.7597 85.4811 77.2977 85.8614C77.5451 86.8692 77.314 86.4873 77.4992 87.5068C75.9992 89.5068 76.7194 93.5653 76.4992 93.7722C76.6919 92.3494 76.2612 95.1889 76.4992 93.7722C75.6445 93.7722 75.3807 93.7722 74.5 93.7722C74.4065 93.1321 74.5963 93.1663 74.5 92.5068C74.4747 93.3814 75.3016 90.9271 72.7696 87.7214C72.7028 87.2821 72.8337 86.9226 72.7649 86.47C73.1922 86.0683 73.6196 85.6667 74.0599 85.2529Z" fill="#236841"/>
<path d="M68.2308 86.4707C68.6582 86.4707 69.0855 86.4707 69.5259 86.4707C69.5259 88.278 69.5259 90.0853 69.5259 91.9474C68.6711 91.9474 67.8164 91.9474 66.9357 91.9474C66.8548 89.8936 66.8548 89.8936 66.9357 87.6877C67.3631 87.2861 67.7905 86.8845 68.2308 86.4707Z" fill="#8BF1B9"/>
<path d="M68.875 40.8311C69.5161 40.8311 70.1571 40.8311 70.8176 40.8311C70.6039 42.4375 70.3902 44.044 70.1701 45.6992C69.7427 45.6992 69.3153 45.6992 68.875 45.6992C68.875 44.0927 68.875 42.4862 68.875 40.8311Z" fill="#07271B"/>
</svg>
